<svg width="30" height="30" viewBox="0 0 30 30" fill="none" xmlns="http://www.w3.org/2000/svg">
<path d="M19.64 20.9662L9.03338 10.3596C8.67098 9.9972 8.67098 9.39615 9.03338 9.03376C9.39577 8.67137 9.99681 8.67137 10.3592 9.03376L20.9658 19.6404C21.3282 20.0028 21.3282 20.6038 20.9658 20.9662C20.6034 21.3286 20.0024 21.3286 19.64 20.9662Z" fill="white"/>
<path d="M9.0342 20.9662C8.6718 20.6038 8.6718 20.0028 9.0342 19.6404L19.6408 9.03376C20.0032 8.67137 20.6042 8.67137 20.9666 9.03376C21.329 9.39615 21.329 9.9972 20.9666 10.3596L10.36 20.9662C9.99763 21.3286 9.39659 21.3286 9.0342 20.9662Z" fill="white"/>
</svg>
