<svg width="18" height="19" viewBox="0 0 18 19" fill="none" xmlns="http://www.w3.org/2000/svg">
<path d="M9 3.3125C7.77623 3.3125 6.57994 3.67539 5.56241 4.35528C4.54488 5.03517 3.75182 6.00153 3.2835 7.13215C2.81518 8.26276 2.69265 9.50686 2.93139 10.7071C3.17014 11.9074 3.75944 13.0099 4.62478 13.8752C5.49012 14.7406 6.59262 15.3299 7.79288 15.5686C8.99314 15.8074 10.2372 15.6848 11.3679 15.2165C12.4985 14.7482 13.4648 13.9551 14.1447 12.9376C14.8246 11.9201 15.1875 10.7238 15.1875 9.5C15.1875 7.85897 14.5356 6.28516 13.3752 5.12478C12.2148 3.9644 10.641 3.3125 9 3.3125Z" stroke="white" stroke-miterlimit="10"/>
<path d="M7.03125 7.61154C7.03125 7.61154 7.06078 6.9963 7.71926 6.4665C8.10984 6.15185 8.57812 6.06079 9 6.05447C9.38426 6.04954 9.72738 6.11318 9.9327 6.21091C10.2843 6.37825 10.9688 6.78677 10.9688 7.65548C10.9688 8.56954 10.3711 8.98474 9.69012 9.44142C9.00914 9.8981 8.82422 10.3938 8.82422 10.906" stroke="white" stroke-miterlimit="10" stroke-linecap="round"/>
<path d="M8.78906 13.4375C9.17739 13.4375 9.49219 13.1227 9.49219 12.7344C9.49219 12.346 9.17739 12.0312 8.78906 12.0312C8.40074 12.0312 8.08594 12.346 8.08594 12.7344C8.08594 13.1227 8.40074 13.4375 8.78906 13.4375Z" fill="white"/>
</svg>
