<svg width="18" height="19" viewBox="0 0 18 19" fill="none" xmlns="http://www.w3.org/2000/svg">
<path d="M8.06981 2C7.70981 2 7.4248 2.285 7.4248 2.645V8.99H10.1773L8.9998 7.8125C8.7823 7.595 8.7823 7.235 8.9998 7.0175C9.2173 6.8 9.57731 6.8 9.79481 7.0175L11.9248 9.155C12.1423 9.3725 12.1423 9.7325 11.9248 9.95L9.79481 12.0875C9.68231 12.2 9.5398 12.2525 9.3973 12.2525C9.2548 12.2525 9.1123 12.2 8.9998 12.0875C8.7823 11.87 8.7823 11.51 8.9998 11.2925L10.1698 10.1225H7.4248V16.37C7.4248 16.7225 7.70981 17.015 8.06981 17.015C12.4873 17.015 15.5698 13.9325 15.5698 9.515C15.5698 5.0975 12.4798 2 8.06981 2Z" fill="white"/>
<path d="M2.99268 8.98999C2.68518 8.98999 2.43018 9.24499 2.43018 9.55249C2.43018 9.85999 2.68518 10.115 2.99268 10.115H7.41768V8.98999H2.99268Z" fill="white"/>
</svg>
