<svg width="24" height="24" viewBox="0 0 24 24" fill="none" xmlns="http://www.w3.org/2000/svg">
<path d="M8.31062 6.45993C8.31062 5.10131 7.20924 3.99992 5.85062 3.99992C4.492 3.99992 3.39062 5.10131 3.39062 6.45993C3.39062 7.81855 4.492 8.91992 5.85062 8.91992C7.20925 8.91992 8.31063 7.81855 8.31062 6.45993Z" stroke="white" stroke-width="1.5" stroke-miterlimit="10" stroke-linecap="round" stroke-linejoin="round"/>
<path opacity="0.4" d="M8.31062 17.54C8.31062 16.1814 7.20924 15.08 5.85062 15.08C4.492 15.08 3.39062 16.1814 3.39062 17.54C3.39062 18.8986 4.492 20 5.85062 20C7.20925 20 8.31063 18.8986 8.31062 17.54Z" stroke="white" stroke-width="1.5" stroke-miterlimit="10" stroke-linecap="round" stroke-linejoin="round"/>
<path opacity="0.4" d="M20.6095 6.45993C20.6095 5.10131 19.5081 3.99992 18.1495 3.99992C16.7908 3.99992 15.6895 5.10131 15.6895 6.45993C15.6895 7.81855 16.7908 8.91992 18.1495 8.91992C19.5081 8.91992 20.6095 7.81855 20.6095 6.45993Z" stroke="white" stroke-width="1.5" stroke-miterlimit="10" stroke-linecap="round" stroke-linejoin="round"/>
<path d="M20.6095 17.54C20.6095 16.1814 19.5081 15.08 18.1495 15.08C16.7908 15.08 15.6895 16.1814 15.6895 17.54C15.6895 18.8986 16.7908 20 18.1495 20C19.5081 20 20.6095 18.8986 20.6095 17.54Z" stroke="white" stroke-width="1.5" stroke-miterlimit="10" stroke-linecap="round" stroke-linejoin="round"/>
</svg>
