<svg width="21" height="21" viewBox="0 0 21 21" fill="none" xmlns="http://www.w3.org/2000/svg">
<path d="M14.2122 19.4584H7.54557C4.50391 19.4584 2.75391 17.7084 2.75391 14.6667V6.33341C2.75391 3.29175 4.50391 1.54175 7.54557 1.54175H14.2122C17.2539 1.54175 19.0039 3.29175 19.0039 6.33341V14.6667C19.0039 17.7084 17.2539 19.4584 14.2122 19.4584ZM7.54557 2.79175C5.16224 2.79175 4.00391 3.95008 4.00391 6.33341V14.6667C4.00391 17.0501 5.16224 18.2084 7.54557 18.2084H14.2122C16.5956 18.2084 17.7539 17.0501 17.7539 14.6667V6.33341C17.7539 3.95008 16.5956 2.79175 14.2122 2.79175H7.54557Z" fill="#FF400A"/>
<path d="M16.2962 8.20833H14.6296C13.3629 8.20833 12.3379 7.18333 12.3379 5.91667V4.25C12.3379 3.90833 12.6212 3.625 12.9629 3.625C13.3046 3.625 13.5879 3.90833 13.5879 4.25V5.91667C13.5879 6.49167 14.0546 6.95833 14.6296 6.95833H16.2962C16.6379 6.95833 16.9212 7.24167 16.9212 7.58333C16.9212 7.925 16.6379 8.20833 16.2962 8.20833Z" fill="#FF400A"/>
<path d="M10.8783 11.9583H7.54492C7.20326 11.9583 6.91992 11.6749 6.91992 11.3333C6.91992 10.9916 7.20326 10.7083 7.54492 10.7083H10.8783C11.2199 10.7083 11.5033 10.9916 11.5033 11.3333C11.5033 11.6749 11.2199 11.9583 10.8783 11.9583Z" fill="#FF400A"/>
<path d="M14.2116 15.2917H7.54492C7.20326 15.2917 6.91992 15.0084 6.91992 14.6667C6.91992 14.3251 7.20326 14.0417 7.54492 14.0417H14.2116C14.5533 14.0417 14.8366 14.3251 14.8366 14.6667C14.8366 15.0084 14.5533 15.2917 14.2116 15.2917Z" fill="#FF400A"/>
</svg>
