<svg width="21" height="21" viewBox="0 0 21 21" fill="none" xmlns="http://www.w3.org/2000/svg">
<path d="M15.8789 14.875H16.8164C17.2304 14.8738 17.6271 14.7087 17.9199 14.416C18.2127 14.1232 18.3777 13.7265 18.3789 13.3125V7.0625C18.3777 6.64848 18.2127 6.25177 17.9199 5.95901C17.6271 5.66625 17.2304 5.50124 16.8164 5.5H4.94141C4.52739 5.50124 4.13068 5.66625 3.83792 5.95901C3.54516 6.25177 3.38014 6.64848 3.37891 7.0625V13.3125C3.38014 13.7265 3.54516 14.1232 3.83792 14.416C4.13068 14.7087 4.52739 14.8738 4.94141 14.875H5.87891" stroke="white" stroke-linejoin="round"/>
<path d="M14.9289 9.875H6.82891C6.30424 9.875 5.87891 10.3003 5.87891 10.825V17.05C5.87891 17.5747 6.30424 18 6.82891 18H14.9289C15.4536 18 15.8789 17.5747 15.8789 17.05V10.825C15.8789 10.3003 15.4536 9.875 14.9289 9.875Z" stroke="white" stroke-linejoin="round"/>
<path d="M15.8789 5.5V4.5625C15.8777 4.14848 15.7127 3.75177 15.4199 3.45901C15.1271 3.16625 14.7304 3.00124 14.3164 3H7.44141C7.02739 3.00124 6.63068 3.16625 6.33792 3.45901C6.04516 3.75177 5.88014 4.14848 5.87891 4.5625V5.5" stroke="white" stroke-linejoin="round"/>
<path d="M16.1914 8.625C16.7092 8.625 17.1289 8.20527 17.1289 7.6875C17.1289 7.16973 16.7092 6.75 16.1914 6.75C15.6736 6.75 15.2539 7.16973 15.2539 7.6875C15.2539 8.20527 15.6736 8.625 16.1914 8.625Z" fill="white"/>
</svg>
