<svg width="21" height="21" viewBox="0 0 21 21" fill="none" xmlns="http://www.w3.org/2000/svg">
<path d="M2.54492 8.00008V5.91675C2.54492 3.84175 4.21992 2.16675 6.29492 2.16675H8.37826" stroke="white" stroke-linecap="round" stroke-linejoin="round"/>
<path d="M13.3789 2.16675H15.4622C17.5372 2.16675 19.2122 3.84175 19.2122 5.91675V8.00008" stroke="white" stroke-linecap="round" stroke-linejoin="round"/>
<path d="M19.2129 13.8333V15.0833C19.2129 17.1583 17.5379 18.8333 15.4629 18.8333H14.2129" stroke="white" stroke-linecap="round" stroke-linejoin="round"/>
<path d="M8.37826 18.8333H6.29492C4.21992 18.8333 2.54492 17.1583 2.54492 15.0833V13" stroke="white" stroke-linecap="round" stroke-linejoin="round"/>
<path d="M15.0462 8.41675V12.5834C15.0462 14.2501 14.2129 15.0834 12.5462 15.0834H9.21289C7.54622 15.0834 6.71289 14.2501 6.71289 12.5834V8.41675C6.71289 6.75008 7.54622 5.91675 9.21289 5.91675H12.5462C14.2129 5.91675 15.0462 6.75008 15.0462 8.41675Z" stroke="white" stroke-linecap="round" stroke-linejoin="round"/>
<path d="M16.7116 10.5H5.04492" stroke="white" stroke-linecap="round" stroke-linejoin="round"/>
</svg>
