<svg width="24" height="24" viewBox="0 0 24 24" fill="none" xmlns="http://www.w3.org/2000/svg">
<path d="M19.5 4.86C17.7 3.09 15.22 2 12.5 2C6.98 2 2.5 6.48 2.5 12C2.5 17.52 6.98 22 12.5 22C15.22 22 17.68 20.92 19.49 19.16" stroke="white" stroke-width="1.5" stroke-miterlimit="10" stroke-linecap="round" stroke-linejoin="round"/>
<path d="M21.5002 11.9999C21.5002 10.1332 19.987 8.61987 18.1202 8.61987C16.2535 8.61987 14.7402 10.1332 14.7402 11.9999C14.7402 13.8666 16.2535 15.3799 18.1202 15.3799C19.987 15.3799 21.5002 13.8666 21.5002 11.9999Z" stroke="white" stroke-width="1.5" stroke-miterlimit="10" stroke-linecap="round" stroke-linejoin="round"/>
<path d="M12 8.75L12 8C12 7.18 11.33 6.5 10.5 6.5C9.68 6.5 9 7.18 9 8C9 8.82 9.67 9.5 10.5 9.5L11.25 9.5C11.66 9.5 12 9.16 12 8.75Z" stroke="white" stroke-width="1.5" stroke-miterlimit="10" stroke-linecap="round" stroke-linejoin="round"/>
</svg>
