{
    "asset" : {
        "generator" : "Khronos glTF Blender I/O v1.7.33",
        "version" : "2.0"
    },
    "scene" : 0,
    "scenes" : [
        {
            "name" : "Scene",
            "nodes" : [
                0
            ]
        }
    ],
    "nodes" : [
        {
            "mesh" : 0,
            "name" : "150333.07000-3D-PS-WHIP-PRONG",
            "translation" : [
                -6.806131839752197,
                0,
                -5.842949390411377
            ]
        }
    ],
    "materials" : [
        {
            "doubleSided" : true,
            "name" : "darkGrey.005",
            "pbrMetallicRoughness" : {
                "baseColorFactor" : [
                    0.19607843458652496,
                    0.19607843458652496,
                    0.19607843458652496,
                    1
                ],
                "roughnessFactor" : 0.858578622341156
            }
        }
    ],
    "meshes" : [
        {
            "name" : "Mesh.006",
            "primitives" : [
                {
                    "attributes" : {
                        "POSITION" : 0,
                        "NORMAL" : 1,
                        "TEXCOORD_0" : 2
                    },
                    "indices" : 3,
                    "material" : 0
                }
            ]
        }
    ],
    "accessors" : [
        {
            "bufferView" : 0,
            "componentType" : 5126,
            "count" : 4606,
            "max" : [
                0.508310079574585,
                0.8070300817489624,
                0.17886999249458313
            ],
            "min" : [
                -0.50885009765625,
                -0.34342002868652344,
                -0.1788800060749054
            ],
            "type" : "VEC3"
        },
        {
            "bufferView" : 1,
            "componentType" : 5126,
            "count" : 4606,
            "type" : "VEC3"
        },
        {
            "bufferView" : 2,
            "componentType" : 5126,
            "count" : 4606,
            "type" : "VEC2"
        },
        {
            "bufferView" : 3,
            "componentType" : 5123,
            "count" : 6216,
            "type" : "SCALAR"
        }
    ],
    "bufferViews" : [
        {
            "buffer" : 0,
            "byteLength" : 55272,
            "byteOffset" : 0
        },
        {
            "buffer" : 0,
            "byteLength" : 55272,
            "byteOffset" : 55272
        },
        {
            "buffer" : 0,
            "byteLength" : 36848,
            "byteOffset" : 110544
        },
        {
            "buffer" : 0,
            "byteLength" : 12432,
            "byteOffset" : 147392
        }
    ],
    "buffers" : [
        {
            "byteLength" : 159824,
            "uri" : "data:application/octet-stream;base64,"
        }
    ]
}
