{
    "asset" : {
        "generator" : "Khronos glTF Blender I/O v1.7.33",
        "version" : "2.0"
    },
    "scene" : 0,
    "scenes" : [
        {
            "name" : "Scene",
            "nodes" : [
                0
            ]
        }
    ],
    "nodes" : [
        {
            "mesh" : 0,
            "name" : "150333.07000-3D-SB-AUX-BLOCK-LOWER",
            "translation" : [
                -6.760084629058838,
                0,
                -8.491835594177246
            ]
        }
    ],
    "materials" : [
        {
            "doubleSided" : true,
            "name" : "darkGrey.006",
            "pbrMetallicRoughness" : {
                "baseColorFactor" : [
                    0.19607843458652496,
                    0.19607843458652496,
                    0.19607843458652496,
                    1
                ],
                "roughnessFactor" : 0.858578622341156
            }
        }
    ],
    "meshes" : [
        {
            "name" : "Mesh.007",
            "primitives" : [
                {
                    "attributes" : {
                        "POSITION" : 0,
                        "NORMAL" : 1,
                        "TEXCOORD_0" : 2
                    },
                    "indices" : 3,
                    "material" : 0
                }
            ]
        }
    ],
    "accessors" : [
        {
            "bufferView" : 0,
            "componentType" : 5126,
            "count" : 174,
            "max" : [
                0.7876318693161011,
                -4.9710001945495605,
                0.8795000314712524
            ],
            "min" : [
                -0.8230000734329224,
                -7.315507411956787,
                -0.8795000314712524
            ],
            "type" : "VEC3"
        },
        {
            "bufferView" : 1,
            "componentType" : 5126,
            "count" : 174,
            "type" : "VEC3"
        },
        {
            "bufferView" : 2,
            "componentType" : 5126,
            "count" : 174,
            "type" : "VEC2"
        },
        {
            "bufferView" : 3,
            "componentType" : 5123,
            "count" : 336,
            "type" : "SCALAR"
        }
    ],
    "bufferViews" : [
        {
            "buffer" : 0,
            "byteLength" : 2088,
            "byteOffset" : 0
        },
        {
            "buffer" : 0,
            "byteLength" : 2088,
            "byteOffset" : 2088
        },
        {
            "buffer" : 0,
            "byteLength" : 1392,
            "byteOffset" : 4176
        },
        {
            "buffer" : 0,
            "byteLength" : 672,
            "byteOffset" : 5568
        }
    ],
    "buffers" : [
        {
            "byteLength" : 6240,
            "uri" : "data:application/octet-stream;base64,"
        }
    ]
}
