{
    "asset" : {
        "generator" : "Khronos glTF Blender I/O v1.7.33",
        "version" : "2.0"
    },
    "scene" : 0,
    "scenes" : [
        {
            "name" : "Scene",
            "nodes" : [
                0
            ]
        }
    ],
    "nodes" : [
        {
            "mesh" : 0,
            "name" : "150333.07000-3D-PS-AUX-PRONG",
            "translation" : [
                -6.806131839752197,
                0,
                -5.842949390411377
            ]
        }
    ],
    "materials" : [
        {
            "doubleSided" : true,
            "name" : "darkGrey.001",
            "pbrMetallicRoughness" : {
                "baseColorFactor" : [
                    0.19607843458652496,
                    0.19607843458652496,
                    0.19607843458652496,
                    1
                ],
                "roughnessFactor" : 0.858578622341156
            }
        }
    ],
    "meshes" : [
        {
            "name" : "Mesh.002",
            "primitives" : [
                {
                    "attributes" : {
                        "POSITION" : 0,
                        "NORMAL" : 1,
                        "TEXCOORD_0" : 2
                    },
                    "indices" : 3,
                    "material" : 0
                }
            ]
        }
    ],
    "accessors" : [
        {
            "bufferView" : 0,
            "componentType" : 5126,
            "count" : 17824,
            "max" : [
                0.7523915767669678,
                1.2700001001358032,
                0.7523915767669678
            ],
            "min" : [
                -0.7523915767669678,
                -0.5649999380111694,
                -0.7523915767669678
            ],
            "type" : "VEC3"
        },
        {
            "bufferView" : 1,
            "componentType" : 5126,
            "count" : 17824,
            "type" : "VEC3"
        },
        {
            "bufferView" : 2,
            "componentType" : 5126,
            "count" : 17824,
            "type" : "VEC2"
        },
        {
            "bufferView" : 3,
            "componentType" : 5123,
            "count" : 21846,
            "type" : "SCALAR"
        }
    ],
    "bufferViews" : [
        {
            "buffer" : 0,
            "byteLength" : 213888,
            "byteOffset" : 0
        },
        {
            "buffer" : 0,
            "byteLength" : 213888,
            "byteOffset" : 213888
        },
        {
            "buffer" : 0,
            "byteLength" : 142592,
            "byteOffset" : 427776
        },
        {
            "buffer" : 0,
            "byteLength" : 43692,
            "byteOffset" : 570368
        }
    ],
    "buffers" : [
        {
            "byteLength" : 614060,
            "uri" : "data:application/octet-stream;base64,"
        }
    ]
}
