{
    "asset" : {
        "generator" : "Khronos glTF Blender I/O v1.7.33",
        "version" : "2.0"
    },
    "scene" : 0,
    "scenes" : [
        {
            "name" : "Scene",
            "nodes" : [
                0
            ]
        }
    ],
    "nodes" : [
        {
            "mesh" : 0,
            "name" : "150333.07000-3D-PS-CRANEBOOM",
            "translation" : [
                -13.177956581115723,
                7.101555824279785,
                -5.84295129776001
            ]
        }
    ],
    "materials" : [
        {
            "doubleSided" : true,
            "name" : "darkGrey.002",
            "pbrMetallicRoughness" : {
                "baseColorFactor" : [
                    0.19607843458652496,
                    0.19607843458652496,
                    0.19607843458652496,
                    1
                ],
                "roughnessFactor" : 0.858578622341156
            }
        }
    ],
    "meshes" : [
        {
            "name" : "Mesh.003",
            "primitives" : [
                {
                    "attributes" : {
                        "POSITION" : 0,
                        "NORMAL" : 1,
                        "TEXCOORD_0" : 2
                    },
                    "indices" : 3,
                    "material" : 0
                }
            ]
        }
    ],
    "accessors" : [
        {
            "bufferView" : 0,
            "componentType" : 5126,
            "count" : 982,
            "max" : [
                122.83177947998047,
                3.250000476837158,
                12.99638557434082
            ],
            "min" : [
                -1.1990280151367188,
                -8.772551536560059,
                -11.596384048461914
            ],
            "type" : "VEC3"
        },
        {
            "bufferView" : 1,
            "componentType" : 5126,
            "count" : 982,
            "type" : "VEC3"
        },
        {
            "bufferView" : 2,
            "componentType" : 5126,
            "count" : 982,
            "type" : "VEC2"
        },
        {
            "bufferView" : 3,
            "componentType" : 5123,
            "count" : 1848,
            "type" : "SCALAR"
        }
    ],
    "bufferViews" : [
        {
            "buffer" : 0,
            "byteLength" : 11784,
            "byteOffset" : 0
        },
        {
            "buffer" : 0,
            "byteLength" : 11784,
            "byteOffset" : 11784
        },
        {
            "buffer" : 0,
            "byteLength" : 7856,
            "byteOffset" : 23568
        },
        {
            "buffer" : 0,
            "byteLength" : 3696,
            "byteOffset" : 31424
        }
    ],
    "buffers" : [
        {
            "byteLength" : 35120,
            "uri" : "data:application/octet-stream;base64,"
        }
    ]
}
