{
    "asset" : {
        "generator" : "Khronos glTF Blender I/O v1.7.33",
        "version" : "2.0"
    },
    "scene" : 0,
    "scenes" : [
        {
            "name" : "Scene",
            "nodes" : [
                0
            ]
        }
    ],
    "nodes" : [
        {
            "mesh" : 0,
            "name" : "150333.07000-3D-SB-WHIP-PRONG",
            "translation" : [
                -6.760084629058838,
                0,
                -8.491835594177246
            ]
        }
    ],
    "materials" : [
        {
            "doubleSided" : true,
            "name" : "darkGrey.011",
            "pbrMetallicRoughness" : {
                "baseColorFactor" : [
                    0.19607843458652496,
                    0.19607843458652496,
                    0.19607843458652496,
                    1
                ],
                "roughnessFactor" : 0.858578622341156
            }
        }
    ],
    "meshes" : [
        {
            "name" : "Mesh.012",
            "primitives" : [
                {
                    "attributes" : {
                        "POSITION" : 0,
                        "NORMAL" : 1,
                        "TEXCOORD_0" : 2
                    },
                    "indices" : 3,
                    "material" : 0
                }
            ]
        }
    ],
    "accessors" : [
        {
            "bufferView" : 0,
            "componentType" : 5126,
            "count" : 4608,
            "max" : [
                0.508310079574585,
                0.8070300817489624,
                0.1788800060749054
            ],
            "min" : [
                -0.50885009765625,
                -0.34342002868652344,
                -0.17886999249458313
            ],
            "type" : "VEC3"
        },
        {
            "bufferView" : 1,
            "componentType" : 5126,
            "count" : 4608,
            "type" : "VEC3"
        },
        {
            "bufferView" : 2,
            "componentType" : 5126,
            "count" : 4608,
            "type" : "VEC2"
        },
        {
            "bufferView" : 3,
            "componentType" : 5123,
            "count" : 6216,
            "type" : "SCALAR"
        }
    ],
    "bufferViews" : [
        {
            "buffer" : 0,
            "byteLength" : 55296,
            "byteOffset" : 0
        },
        {
            "buffer" : 0,
            "byteLength" : 55296,
            "byteOffset" : 55296
        },
        {
            "buffer" : 0,
            "byteLength" : 36864,
            "byteOffset" : 110592
        },
        {
            "buffer" : 0,
            "byteLength" : 12432,
            "byteOffset" : 147456
        }
    ],
    "buffers" : [
        {
            "byteLength" : 159888,
            "uri" : "data:application/octet-stream;base64,"
        }
    ]
}
