{
    "asset" : {
        "generator" : "Khronos glTF Blender I/O v1.7.33",
        "version" : "2.0"
    },
    "scene" : 0,
    "scenes" : [
        {
            "name" : "Scene",
            "nodes" : [
                0
            ]
        }
    ],
    "nodes" : [
        {
            "mesh" : 0,
            "name" : "CP0591.02000-3D-01194-01-01"
        }
    ],
    "materials" : [
        {
            "doubleSided" : true,
            "name" : "lightgrey.009",
            "pbrMetallicRoughness" : {
                "baseColorFactor" : [
                    0.7215686440467834,
                    0.7215686440467834,
                    0.7215686440467834,
                    1
                ],
                "roughnessFactor" : 0.858578622341156
            }
        }
    ],
    "meshes" : [
        {
            "name" : "Mesh.031",
            "primitives" : [
                {
                    "attributes" : {
                        "POSITION" : 0,
                        "NORMAL" : 1,
                        "TEXCOORD_0" : 2
                    },
                    "indices" : 3,
                    "material" : 0
                }
            ]
        }
    ],
    "accessors" : [
        {
            "bufferView" : 0,
            "componentType" : 5126,
            "count" : 6246,
            "max" : [
                4.729255199432373,
                22.66138458251953,
                4.716162204742432
            ],
            "min" : [
                -4.729255199432373,
                22.106203079223633,
                -4.7161545753479
            ],
            "type" : "VEC3"
        },
        {
            "bufferView" : 1,
            "componentType" : 5126,
            "count" : 6246,
            "type" : "VEC3"
        },
        {
            "bufferView" : 2,
            "componentType" : 5126,
            "count" : 6246,
            "type" : "VEC2"
        },
        {
            "bufferView" : 3,
            "componentType" : 5123,
            "count" : 17625,
            "type" : "SCALAR"
        }
    ],
    "bufferViews" : [
        {
            "buffer" : 0,
            "byteLength" : 74952,
            "byteOffset" : 0
        },
        {
            "buffer" : 0,
            "byteLength" : 74952,
            "byteOffset" : 74952
        },
        {
            "buffer" : 0,
            "byteLength" : 49968,
            "byteOffset" : 149904
        },
        {
            "buffer" : 0,
            "byteLength" : 35250,
            "byteOffset" : 199872
        }
    ],
    "buffers" : [
        {
            "byteLength" : 235124,
            "uri" : "data:application/octet-stream;base64,"
        }
    ]
}
