{
    "asset" : {
        "generator" : "Khronos glTF Blender I/O v1.7.33",
        "version" : "2.0"
    },
    "scene" : 0,
    "scenes" : [
        {
            "name" : "Scene",
            "nodes" : [
                0
            ]
        }
    ],
    "nodes" : [
        {
            "mesh" : 0,
            "name" : "CP0591.02000-3D-01233-31-01"
        }
    ],
    "materials" : [
        {
            "doubleSided" : true,
            "name" : "lightgrey.011",
            "pbrMetallicRoughness" : {
                "baseColorFactor" : [
                    0.7215686440467834,
                    0.7215686440467834,
                    0.7215686440467834,
                    1
                ],
                "roughnessFactor" : 0.858578622341156
            }
        }
    ],
    "meshes" : [
        {
            "name" : "Mesh.033",
            "primitives" : [
                {
                    "attributes" : {
                        "POSITION" : 0,
                        "NORMAL" : 1,
                        "TEXCOORD_0" : 2,
                        "TEXCOORD_1" : 3,
                        "COLOR_0" : 4
                    },
                    "indices" : 5,
                    "material" : 0
                }
            ]
        }
    ],
    "accessors" : [
        {
            "bufferView" : 0,
            "componentType" : 5126,
            "count" : 7302,
            "max" : [
                10.82018756866455,
                16.691570281982422,
                25.960002899169922
            ],
            "min" : [
                -10.82018756866455,
                -5.245208740234375e-06,
                -25.960002899169922
            ],
            "type" : "VEC3"
        },
        {
            "bufferView" : 1,
            "componentType" : 5126,
            "count" : 7302,
            "type" : "VEC3"
        },
        {
            "bufferView" : 2,
            "componentType" : 5126,
            "count" : 7302,
            "type" : "VEC2"
        },
        {
            "bufferView" : 3,
            "componentType" : 5126,
            "count" : 7302,
            "type" : "VEC2"
        },
        {
            "bufferView" : 4,
            "componentType" : 5123,
            "count" : 7302,
            "normalized" : true,
            "type" : "VEC4"
        },
        {
            "bufferView" : 5,
            "componentType" : 5123,
            "count" : 13608,
            "type" : "SCALAR"
        }
    ],
    "bufferViews" : [
        {
            "buffer" : 0,
            "byteLength" : 87624,
            "byteOffset" : 0
        },
        {
            "buffer" : 0,
            "byteLength" : 87624,
            "byteOffset" : 87624
        },
        {
            "buffer" : 0,
            "byteLength" : 58416,
            "byteOffset" : 175248
        },
        {
            "buffer" : 0,
            "byteLength" : 58416,
            "byteOffset" : 233664
        },
        {
            "buffer" : 0,
            "byteLength" : 58416,
            "byteOffset" : 292080
        },
        {
            "buffer" : 0,
            "byteLength" : 27216,
            "byteOffset" : 350496
        }
    ],
    "buffers" : [
        {
            "byteLength" : 377712,
            "uri" : "data:application/octet-stream;base64,"
        }
    ]
}
