{
    "asset" : {
        "generator" : "Khronos glTF Blender I/O v1.7.33",
        "version" : "2.0"
    },
    "scene" : 0,
    "scenes" : [
        {
            "name" : "Scene",
            "nodes" : [
                0
            ]
        }
    ],
    "nodes" : [
        {
            "mesh" : 0,
            "name" : "CP0591.00000-3D-00090-01-00.001"
        }
    ],
    "materials" : [
        {
            "doubleSided" : true,
            "emissiveFactor" : [
                0.12941177189350128,
                0.12941177189350128,
                0.12941177189350128
            ],
            "name" : "neutal",
            "pbrMetallicRoughness" : {
                "baseColorFactor" : [
                    0.6941176652908325,
                    0.6941176652908325,
                    0.6941176652908325,
                    1
                ],
                "metallicFactor" : 0,
                "roughnessFactor" : 0.5527864098548889
            }
        }
    ],
    "meshes" : [
        {
            "name" : "Mesh.014",
            "primitives" : [
                {
                    "attributes" : {
                        "POSITION" : 0,
                        "NORMAL" : 1,
                        "TEXCOORD_0" : 2
                    },
                    "indices" : 3,
                    "material" : 0
                }
            ]
        }
    ],
    "accessors" : [
        {
            "bufferView" : 0,
            "componentType" : 5126,
            "count" : 11919,
            "max" : [
                6.115079879760742,
                -28.764354705810547,
                6.115078449249268
            ],
            "min" : [
                -6.115079879760742,
                -30.965009689331055,
                -6.115081310272217
            ],
            "type" : "VEC3"
        },
        {
            "bufferView" : 1,
            "componentType" : 5126,
            "count" : 11919,
            "type" : "VEC3"
        },
        {
            "bufferView" : 2,
            "componentType" : 5126,
            "count" : 11919,
            "type" : "VEC2"
        },
        {
            "bufferView" : 3,
            "componentType" : 5123,
            "count" : 27030,
            "type" : "SCALAR"
        }
    ],
    "bufferViews" : [
        {
            "buffer" : 0,
            "byteLength" : 143028,
            "byteOffset" : 0
        },
        {
            "buffer" : 0,
            "byteLength" : 143028,
            "byteOffset" : 143028
        },
        {
            "buffer" : 0,
            "byteLength" : 95352,
            "byteOffset" : 286056
        },
        {
            "buffer" : 0,
            "byteLength" : 54060,
            "byteOffset" : 381408
        }
    ],
    "buffers" : [
        {
            "byteLength" : 435468,
            "uri" : "data:application/octet-stream;base64,"
        }
    ]
}
