{
    "asset" : {
        "generator" : "Khronos glTF Blender I/O v1.7.33",
        "version" : "2.0"
    },
    "scene" : 0,
    "scenes" : [
        {
            "name" : "Scene",
            "nodes" : [
                0
            ]
        }
    ],
    "nodes" : [
        {
            "mesh" : 0,
            "name" : "CP0591.02000-3D-00332-31-01"
        }
    ],
    "materials" : [
        {
            "doubleSided" : true,
            "name" : "lightgrey.003",
            "pbrMetallicRoughness" : {
                "baseColorFactor" : [
                    0.7215686440467834,
                    0.7215686440467834,
                    0.7215686440467834,
                    1
                ],
                "roughnessFactor" : 0.858578622341156
            }
        }
    ],
    "meshes" : [
        {
            "name" : "Mesh.019",
            "primitives" : [
                {
                    "attributes" : {
                        "POSITION" : 0,
                        "NORMAL" : 1,
                        "TEXCOORD_0" : 2,
                        "TEXCOORD_1" : 3,
                        "COLOR_0" : 4
                    },
                    "indices" : 5,
                    "material" : 0
                }
            ]
        }
    ],
    "accessors" : [
        {
            "bufferView" : 0,
            "componentType" : 5126,
            "count" : 32690,
            "max" : [
                8.84726333618164,
                1.5900042057037354,
                24.85000228881836
            ],
            "min" : [
                -8.851954460144043,
                -6.556510925292969e-07,
                -24.850008010864258
            ],
            "type" : "VEC3"
        },
        {
            "bufferView" : 1,
            "componentType" : 5126,
            "count" : 32690,
            "type" : "VEC3"
        },
        {
            "bufferView" : 2,
            "componentType" : 5126,
            "count" : 32690,
            "type" : "VEC2"
        },
        {
            "bufferView" : 3,
            "componentType" : 5126,
            "count" : 32690,
            "type" : "VEC2"
        },
        {
            "bufferView" : 4,
            "componentType" : 5123,
            "count" : 32690,
            "normalized" : true,
            "type" : "VEC4"
        },
        {
            "bufferView" : 5,
            "componentType" : 5123,
            "count" : 59796,
            "type" : "SCALAR"
        }
    ],
    "bufferViews" : [
        {
            "buffer" : 0,
            "byteLength" : 392280,
            "byteOffset" : 0
        },
        {
            "buffer" : 0,
            "byteLength" : 392280,
            "byteOffset" : 392280
        },
        {
            "buffer" : 0,
            "byteLength" : 261520,
            "byteOffset" : 784560
        },
        {
            "buffer" : 0,
            "byteLength" : 261520,
            "byteOffset" : 1046080
        },
        {
            "buffer" : 0,
            "byteLength" : 261520,
            "byteOffset" : 1307600
        },
        {
            "buffer" : 0,
            "byteLength" : 119592,
            "byteOffset" : 1569120
        }
    ],
    "buffers" : [
        {
            "byteLength" : 1688712,
            "uri" : "data:application/octet-stream;base64,"
        }
    ]
}
