{
    "asset" : {
        "generator" : "Khronos glTF Blender I/O v1.7.33",
        "version" : "2.0"
    },
    "scene" : 0,
    "scenes" : [
        {
            "name" : "Scene",
            "nodes" : [
                0
            ]
        }
    ],
    "nodes" : [
        {
            "mesh" : 0,
            "name" : "CP0591.02000-3D-00009-01-01"
        }
    ],
    "materials" : [
        {
            "doubleSided" : true,
            "emissiveFactor" : [
                0.12941177189350128,
                0.12941177189350128,
                0.12941177189350128
            ],
            "name" : "neutal.001",
            "pbrMetallicRoughness" : {
                "baseColorFactor" : [
                    0.6941176652908325,
                    0.6941176652908325,
                    0.6941176652908325,
                    1
                ],
                "metallicFactor" : 0,
                "roughnessFactor" : 0.5527864098548889
            }
        }
    ],
    "meshes" : [
        {
            "name" : "Mesh.015",
            "primitives" : [
                {
                    "attributes" : {
                        "POSITION" : 0,
                        "NORMAL" : 1,
                        "TEXCOORD_0" : 2
                    },
                    "indices" : 3,
                    "material" : 0
                }
            ]
        }
    ],
    "accessors" : [
        {
            "bufferView" : 0,
            "componentType" : 5126,
            "count" : 49446,
            "max" : [
                3.3906056880950928,
                3.7259883880615234,
                2.3410913944244385
            ],
            "min" : [
                -2.0500001907348633,
                -10.67445182800293,
                -1.906093955039978
            ],
            "type" : "VEC3"
        },
        {
            "bufferView" : 1,
            "componentType" : 5126,
            "count" : 49446,
            "type" : "VEC3"
        },
        {
            "bufferView" : 2,
            "componentType" : 5126,
            "count" : 49446,
            "type" : "VEC2"
        },
        {
            "bufferView" : 3,
            "componentType" : 5123,
            "count" : 130470,
            "type" : "SCALAR"
        }
    ],
    "bufferViews" : [
        {
            "buffer" : 0,
            "byteLength" : 593352,
            "byteOffset" : 0
        },
        {
            "buffer" : 0,
            "byteLength" : 593352,
            "byteOffset" : 593352
        },
        {
            "buffer" : 0,
            "byteLength" : 395568,
            "byteOffset" : 1186704
        },
        {
            "buffer" : 0,
            "byteLength" : 260940,
            "byteOffset" : 1582272
        }
    ],
    "buffers" : [
        {
            "byteLength" : 1843212,
            "uri" : "data:application/octet-stream;base64,"
        }
    ]
}
