{
    "asset" : {
        "generator" : "Khronos glTF Blender I/O v1.7.33",
        "version" : "2.0"
    },
    "scene" : 0,
    "scenes" : [
        {
            "name" : "Scene",
            "nodes" : [
                0
            ]
        }
    ],
    "nodes" : [
        {
            "mesh" : 0,
            "name" : "CP0591.02000-3D-00434-01-01",
            "rotation" : [
                0.49997490644454956,
                -0.5000253915786743,
                0.49997478723526,
                0.5000250935554504
            ],
            "scale" : [
                0.0010000000474974513,
                0.0010000000474974513,
                0.0010000000474974513
            ],
            "translation" : [
                -76.975341796875,
                -88.71855163574219,
                17.881805419921875
            ]
        }
    ],
    "materials" : [
        {
            "doubleSided" : true,
            "emissiveFactor" : [
                0.12941177189350128,
                0.12941177189350128,
                0.12941177189350128
            ],
            "name" : "neutal.007",
            "pbrMetallicRoughness" : {
                "baseColorFactor" : [
                    0.6941176652908325,
                    0.6941176652908325,
                    0.6941176652908325,
                    1
                ],
                "metallicFactor" : 0,
                "roughnessFactor" : 0.5527864098548889
            }
        }
    ],
    "meshes" : [
        {
            "name" : "Mesh.025",
            "primitives" : [
                {
                    "attributes" : {
                        "POSITION" : 0,
                        "NORMAL" : 1
                    },
                    "indices" : 2,
                    "material" : 0
                }
            ]
        }
    ],
    "accessors" : [
        {
            "bufferView" : 0,
            "componentType" : 5126,
            "count" : 4176,
            "max" : [
                -16752.220703125,
                -76315.7578125,
                -51074.9609375
            ],
            "min" : [
                -19107.767578125,
                -77616.390625,
                -88925.75
            ],
            "type" : "VEC3"
        },
        {
            "bufferView" : 1,
            "componentType" : 5126,
            "count" : 4176,
            "type" : "VEC3"
        },
        {
            "bufferView" : 2,
            "componentType" : 5123,
            "count" : 4176,
            "type" : "SCALAR"
        }
    ],
    "bufferViews" : [
        {
            "buffer" : 0,
            "byteLength" : 50112,
            "byteOffset" : 0
        },
        {
            "buffer" : 0,
            "byteLength" : 50112,
            "byteOffset" : 50112
        },
        {
            "buffer" : 0,
            "byteLength" : 8352,
            "byteOffset" : 100224
        }
    ],
    "buffers" : [
        {
            "byteLength" : 108576,
            "uri" : "data:application/octet-stream;base64,"
        }
    ]
}
