{
    "asset" : {
        "generator" : "Khronos glTF Blender I/O v1.7.33",
        "version" : "2.0"
    },
    "scene" : 0,
    "scenes" : [
        {
            "name" : "Scene",
            "nodes" : [
                0
            ]
        }
    ],
    "nodes" : [
        {
            "mesh" : 0,
            "name" : "CP0591.02000-3D-00334-01-01",
            "rotation" : [
                0.49999913573265076,
                -0.5000004768371582,
                0.5000001192092896,
                0.5000004768371582
            ],
            "scale" : [
                0.0010000000474974513,
                0.0010000000474974513,
                0.0010000000474974513
            ],
            "translation" : [
                -164.9361114501953,
                -85.69763946533203,
                17.92624855041504
            ]
        }
    ],
    "materials" : [
        {
            "doubleSided" : true,
            "emissiveFactor" : [
                0.12941177189350128,
                0.12941177189350128,
                0.12941177189350128
            ],
            "name" : "neutal.004",
            "pbrMetallicRoughness" : {
                "baseColorFactor" : [
                    0.6941176652908325,
                    0.6941176652908325,
                    0.6941176652908325,
                    1
                ],
                "metallicFactor" : 0,
                "roughnessFactor" : 0.5527864098548889
            }
        }
    ],
    "meshes" : [
        {
            "name" : "Mesh.022",
            "primitives" : [
                {
                    "attributes" : {
                        "POSITION" : 0,
                        "NORMAL" : 1
                    },
                    "indices" : 2,
                    "material" : 0
                }
            ]
        }
    ],
    "accessors" : [
        {
            "bufferView" : 0,
            "componentType" : 5126,
            "count" : 54228,
            "max" : [
                -16079.998046875,
                -163470.84375,
                -46252.53125
            ],
            "min" : [
                -19780,
                -166378.90625,
                -85968.96875
            ],
            "type" : "VEC3"
        },
        {
            "bufferView" : 1,
            "componentType" : 5126,
            "count" : 54228,
            "type" : "VEC3"
        },
        {
            "bufferView" : 2,
            "componentType" : 5123,
            "count" : 54228,
            "type" : "SCALAR"
        }
    ],
    "bufferViews" : [
        {
            "buffer" : 0,
            "byteLength" : 650736,
            "byteOffset" : 0
        },
        {
            "buffer" : 0,
            "byteLength" : 650736,
            "byteOffset" : 650736
        },
        {
            "buffer" : 0,
            "byteLength" : 108456,
            "byteOffset" : 1301472
        }
    ],
    "buffers" : [
        {
            "byteLength" : 1409928,
            "uri" : "data:application/octet-stream;base64,"
        }
    ]
}
