{
    "asset" : {
        "generator" : "Khronos glTF Blender I/O v1.7.33",
        "version" : "2.0"
    },
    "scene" : 0,
    "scenes" : [
        {
            "name" : "Scene",
            "nodes" : [
                0
            ]
        }
    ],
    "nodes" : [
        {
            "mesh" : 0,
            "name" : "CP0591.02000-3D-00143-31-01.001"
        }
    ],
    "materials" : [
        {
            "doubleSided" : true,
            "emissiveFactor" : [
                0.12941177189350128,
                0.12941177189350128,
                0.12941177189350128
            ],
            "name" : "neutal.002",
            "pbrMetallicRoughness" : {
                "baseColorFactor" : [
                    0.6941176652908325,
                    0.6941176652908325,
                    0.6941176652908325,
                    1
                ],
                "metallicFactor" : 0,
                "roughnessFactor" : 0.5527864098548889
            }
        }
    ],
    "meshes" : [
        {
            "name" : "Mesh.017",
            "primitives" : [
                {
                    "attributes" : {
                        "POSITION" : 0,
                        "NORMAL" : 1,
                        "TEXCOORD_0" : 2
                    },
                    "indices" : 3,
                    "material" : 0
                }
            ]
        }
    ],
    "accessors" : [
        {
            "bufferView" : 0,
            "componentType" : 5126,
            "count" : 18622,
            "max" : [
                5.4005279541015625,
                -0.6893731355667114,
                7.513843536376953
            ],
            "min" : [
                -6.562056541442871,
                -5.189998149871826,
                -7.513842582702637
            ],
            "type" : "VEC3"
        },
        {
            "bufferView" : 1,
            "componentType" : 5126,
            "count" : 18622,
            "type" : "VEC3"
        },
        {
            "bufferView" : 2,
            "componentType" : 5126,
            "count" : 18622,
            "type" : "VEC2"
        },
        {
            "bufferView" : 3,
            "componentType" : 5123,
            "count" : 40101,
            "type" : "SCALAR"
        }
    ],
    "bufferViews" : [
        {
            "buffer" : 0,
            "byteLength" : 223464,
            "byteOffset" : 0
        },
        {
            "buffer" : 0,
            "byteLength" : 223464,
            "byteOffset" : 223464
        },
        {
            "buffer" : 0,
            "byteLength" : 148976,
            "byteOffset" : 446928
        },
        {
            "buffer" : 0,
            "byteLength" : 80202,
            "byteOffset" : 595904
        }
    ],
    "buffers" : [
        {
            "byteLength" : 676108,
            "uri" : "data:application/octet-stream;base64,"
        }
    ]
}
