{
    "asset" : {
        "generator" : "Khronos glTF Blender I/O v1.7.33",
        "version" : "2.0"
    },
    "scene" : 0,
    "scenes" : [
        {
            "name" : "Scene",
            "nodes" : [
                0
            ]
        }
    ],
    "nodes" : [
        {
            "mesh" : 0,
            "name" : "CP0591.02000-3D-01195-31-01"
        }
    ],
    "materials" : [
        {
            "doubleSided" : true,
            "name" : "lightgrey.010",
            "pbrMetallicRoughness" : {
                "baseColorFactor" : [
                    0.7215686440467834,
                    0.7215686440467834,
                    0.7215686440467834,
                    1
                ],
                "roughnessFactor" : 0.858578622341156
            }
        }
    ],
    "meshes" : [
        {
            "name" : "Mesh.032",
            "primitives" : [
                {
                    "attributes" : {
                        "POSITION" : 0,
                        "NORMAL" : 1,
                        "TEXCOORD_0" : 2
                    },
                    "indices" : 3,
                    "material" : 0
                }
            ]
        }
    ],
    "accessors" : [
        {
            "bufferView" : 0,
            "componentType" : 5126,
            "count" : 1118,
            "max" : [
                3.7912707328796387,
                5.599999904632568,
                10.243291854858398
            ],
            "min" : [
                -10.243291854858398,
                -1.6688439927747822e-06,
                -4.205000400543213
            ],
            "type" : "VEC3"
        },
        {
            "bufferView" : 1,
            "componentType" : 5126,
            "count" : 1118,
            "type" : "VEC3"
        },
        {
            "bufferView" : 2,
            "componentType" : 5126,
            "count" : 1118,
            "type" : "VEC2"
        },
        {
            "bufferView" : 3,
            "componentType" : 5123,
            "count" : 2340,
            "type" : "SCALAR"
        }
    ],
    "bufferViews" : [
        {
            "buffer" : 0,
            "byteLength" : 13416,
            "byteOffset" : 0
        },
        {
            "buffer" : 0,
            "byteLength" : 13416,
            "byteOffset" : 13416
        },
        {
            "buffer" : 0,
            "byteLength" : 8944,
            "byteOffset" : 26832
        },
        {
            "buffer" : 0,
            "byteLength" : 4680,
            "byteOffset" : 35776
        }
    ],
    "buffers" : [
        {
            "byteLength" : 40456,
            "uri" : "data:application/octet-stream;base64,"
        }
    ]
}
