{
    "asset" : {
        "generator" : "Khronos glTF Blender I/O v1.7.33",
        "version" : "2.0"
    },
    "scene" : 0,
    "scenes" : [
        {
            "name" : "Scene",
            "nodes" : [
                0
            ]
        }
    ],
    "nodes" : [
        {
            "mesh" : 0,
            "name" : "CP0591.02000-3D-02433-31-01"
        }
    ],
    "materials" : [
        {
            "doubleSided" : true,
            "name" : "lightgrey.015",
            "pbrMetallicRoughness" : {
                "baseColorFactor" : [
                    0.7215686440467834,
                    0.7215686440467834,
                    0.7215686440467834,
                    1
                ],
                "roughnessFactor" : 0.858578622341156
            }
        }
    ],
    "meshes" : [
        {
            "name" : "Mesh.037",
            "primitives" : [
                {
                    "attributes" : {
                        "POSITION" : 0,
                        "NORMAL" : 1,
                        "TEXCOORD_0" : 2,
                        "TEXCOORD_1" : 3,
                        "COLOR_0" : 4
                    },
                    "indices" : 5,
                    "material" : 0
                }
            ]
        }
    ],
    "accessors" : [
        {
            "bufferView" : 0,
            "componentType" : 5126,
            "count" : 1584,
            "max" : [
                1.3750349283218384,
                22.794809341430664,
                13.051278114318848
            ],
            "min" : [
                -1.3749804496765137,
                9.964651107788086,
                -12.135007858276367
            ],
            "type" : "VEC3"
        },
        {
            "bufferView" : 1,
            "componentType" : 5126,
            "count" : 1584,
            "type" : "VEC3"
        },
        {
            "bufferView" : 2,
            "componentType" : 5126,
            "count" : 1584,
            "type" : "VEC2"
        },
        {
            "bufferView" : 3,
            "componentType" : 5126,
            "count" : 1584,
            "type" : "VEC2"
        },
        {
            "bufferView" : 4,
            "componentType" : 5123,
            "count" : 1584,
            "normalized" : true,
            "type" : "VEC4"
        },
        {
            "bufferView" : 5,
            "componentType" : 5123,
            "count" : 3003,
            "type" : "SCALAR"
        }
    ],
    "bufferViews" : [
        {
            "buffer" : 0,
            "byteLength" : 19008,
            "byteOffset" : 0
        },
        {
            "buffer" : 0,
            "byteLength" : 19008,
            "byteOffset" : 19008
        },
        {
            "buffer" : 0,
            "byteLength" : 12672,
            "byteOffset" : 38016
        },
        {
            "buffer" : 0,
            "byteLength" : 12672,
            "byteOffset" : 50688
        },
        {
            "buffer" : 0,
            "byteLength" : 12672,
            "byteOffset" : 63360
        },
        {
            "buffer" : 0,
            "byteLength" : 6006,
            "byteOffset" : 76032
        }
    ],
    "buffers" : [
        {
            "byteLength" : 82040,
            "uri" : "data:application/octet-stream;base64,"
        }
    ]
}
