{
    "asset" : {
        "generator" : "Khronos glTF Blender I/O v1.7.33",
        "version" : "2.0"
    },
    "scene" : 0,
    "scenes" : [
        {
            "name" : "Scene",
            "nodes" : [
                0
            ]
        }
    ],
    "nodes" : [
        {
            "mesh" : 0,
            "name" : "CP0591.02000-3D-02133-31-01"
        }
    ],
    "materials" : [
        {
            "doubleSided" : true,
            "name" : "lightgrey.012",
            "pbrMetallicRoughness" : {
                "baseColorFactor" : [
                    0.7215686440467834,
                    0.7215686440467834,
                    0.7215686440467834,
                    1
                ],
                "roughnessFactor" : 0.858578622341156
            }
        }
    ],
    "meshes" : [
        {
            "name" : "Mesh.034",
            "primitives" : [
                {
                    "attributes" : {
                        "POSITION" : 0,
                        "NORMAL" : 1,
                        "TEXCOORD_0" : 2,
                        "TEXCOORD_1" : 3,
                        "COLOR_0" : 4
                    },
                    "indices" : 5,
                    "material" : 0
                }
            ]
        }
    ],
    "accessors" : [
        {
            "bufferView" : 0,
            "componentType" : 5126,
            "count" : 1596,
            "max" : [
                1.3752599954605103,
                22.83665657043457,
                12.119999885559082
            ],
            "min" : [
                -1.3750150203704834,
                9.958659172058105,
                -14.934630393981934
            ],
            "type" : "VEC3"
        },
        {
            "bufferView" : 1,
            "componentType" : 5126,
            "count" : 1596,
            "type" : "VEC3"
        },
        {
            "bufferView" : 2,
            "componentType" : 5126,
            "count" : 1596,
            "type" : "VEC2"
        },
        {
            "bufferView" : 3,
            "componentType" : 5126,
            "count" : 1596,
            "type" : "VEC2"
        },
        {
            "bufferView" : 4,
            "componentType" : 5123,
            "count" : 1596,
            "normalized" : true,
            "type" : "VEC4"
        },
        {
            "bufferView" : 5,
            "componentType" : 5123,
            "count" : 3060,
            "type" : "SCALAR"
        }
    ],
    "bufferViews" : [
        {
            "buffer" : 0,
            "byteLength" : 19152,
            "byteOffset" : 0
        },
        {
            "buffer" : 0,
            "byteLength" : 19152,
            "byteOffset" : 19152
        },
        {
            "buffer" : 0,
            "byteLength" : 12768,
            "byteOffset" : 38304
        },
        {
            "buffer" : 0,
            "byteLength" : 12768,
            "byteOffset" : 51072
        },
        {
            "buffer" : 0,
            "byteLength" : 12768,
            "byteOffset" : 63840
        },
        {
            "buffer" : 0,
            "byteLength" : 6120,
            "byteOffset" : 76608
        }
    ],
    "buffers" : [
        {
            "byteLength" : 82728,
            "uri" : "data:application/octet-stream;base64,"
        }
    ]
}
