{
    "asset" : {
        "generator" : "Khronos glTF Blender I/O v1.7.33",
        "version" : "2.0"
    },
    "scene" : 0,
    "scenes" : [
        {
            "name" : "Scene",
            "nodes" : [
                0
            ]
        }
    ],
    "nodes" : [
        {
            "mesh" : 0,
            "name" : "CP0591.02000-3D-00332-31-03"
        }
    ],
    "materials" : [
        {
            "doubleSided" : true,
            "name" : "lightgrey.005",
            "pbrMetallicRoughness" : {
                "baseColorFactor" : [
                    0.7215686440467834,
                    0.7215686440467834,
                    0.7215686440467834,
                    1
                ],
                "roughnessFactor" : 0.858578622341156
            }
        }
    ],
    "meshes" : [
        {
            "name" : "Mesh.021",
            "primitives" : [
                {
                    "attributes" : {
                        "POSITION" : 0,
                        "NORMAL" : 1,
                        "TEXCOORD_0" : 2,
                        "TEXCOORD_1" : 3
                    },
                    "indices" : 4,
                    "material" : 0
                }
            ]
        }
    ],
    "accessors" : [
        {
            "bufferView" : 0,
            "componentType" : 5126,
            "count" : 61669,
            "max" : [
                6.915008544921875,
                22.022003173828125,
                7.165000915527344
            ],
            "min" : [
                -6.704998016357422,
                1.2219963073730469,
                -7.1649980545043945
            ],
            "type" : "VEC3"
        },
        {
            "bufferView" : 1,
            "componentType" : 5126,
            "count" : 61669,
            "type" : "VEC3"
        },
        {
            "bufferView" : 2,
            "componentType" : 5126,
            "count" : 61669,
            "type" : "VEC2"
        },
        {
            "bufferView" : 3,
            "componentType" : 5126,
            "count" : 61669,
            "type" : "VEC2"
        },
        {
            "bufferView" : 4,
            "componentType" : 5123,
            "count" : 157470,
            "type" : "SCALAR"
        }
    ],
    "bufferViews" : [
        {
            "buffer" : 0,
            "byteLength" : 740028,
            "byteOffset" : 0
        },
        {
            "buffer" : 0,
            "byteLength" : 740028,
            "byteOffset" : 740028
        },
        {
            "buffer" : 0,
            "byteLength" : 493352,
            "byteOffset" : 1480056
        },
        {
            "buffer" : 0,
            "byteLength" : 493352,
            "byteOffset" : 1973408
        },
        {
            "buffer" : 0,
            "byteLength" : 314940,
            "byteOffset" : 2466760
        }
    ],
    "buffers" : [
        {
            "byteLength" : 2781700,
            "uri" : "data:application/octet-stream;base64,"
        }
    ]
}
