{
    "asset" : {
        "generator" : "Khronos glTF Blender I/O v1.7.33",
        "version" : "2.0"
    },
    "scene" : 0,
    "scenes" : [
        {
            "name" : "Scene",
            "nodes" : [
                0
            ]
        }
    ],
    "nodes" : [
        {
            "mesh" : 0,
            "name" : "CP0591.02000-3D-02333-31-01"
        }
    ],
    "materials" : [
        {
            "doubleSided" : true,
            "name" : "lightgrey.014",
            "pbrMetallicRoughness" : {
                "baseColorFactor" : [
                    0.7215686440467834,
                    0.7215686440467834,
                    0.7215686440467834,
                    1
                ],
                "roughnessFactor" : 0.858578622341156
            }
        }
    ],
    "meshes" : [
        {
            "name" : "Mesh.036",
            "primitives" : [
                {
                    "attributes" : {
                        "POSITION" : 0,
                        "NORMAL" : 1,
                        "TEXCOORD_0" : 2,
                        "TEXCOORD_1" : 3,
                        "COLOR_0" : 4
                    },
                    "indices" : 5,
                    "material" : 0
                }
            ]
        }
    ],
    "accessors" : [
        {
            "bufferView" : 0,
            "componentType" : 5126,
            "count" : 1538,
            "max" : [
                1.3750358819961548,
                22.794801712036133,
                12.10002613067627
            ],
            "min" : [
                -1.3749805688858032,
                9.964659690856934,
                -13.051270484924316
            ],
            "type" : "VEC3"
        },
        {
            "bufferView" : 1,
            "componentType" : 5126,
            "count" : 1538,
            "type" : "VEC3"
        },
        {
            "bufferView" : 2,
            "componentType" : 5126,
            "count" : 1538,
            "type" : "VEC2"
        },
        {
            "bufferView" : 3,
            "componentType" : 5126,
            "count" : 1538,
            "type" : "VEC2"
        },
        {
            "bufferView" : 4,
            "componentType" : 5123,
            "count" : 1538,
            "normalized" : true,
            "type" : "VEC4"
        },
        {
            "bufferView" : 5,
            "componentType" : 5123,
            "count" : 2931,
            "type" : "SCALAR"
        }
    ],
    "bufferViews" : [
        {
            "buffer" : 0,
            "byteLength" : 18456,
            "byteOffset" : 0
        },
        {
            "buffer" : 0,
            "byteLength" : 18456,
            "byteOffset" : 18456
        },
        {
            "buffer" : 0,
            "byteLength" : 12304,
            "byteOffset" : 36912
        },
        {
            "buffer" : 0,
            "byteLength" : 12304,
            "byteOffset" : 49216
        },
        {
            "buffer" : 0,
            "byteLength" : 12304,
            "byteOffset" : 61520
        },
        {
            "buffer" : 0,
            "byteLength" : 5862,
            "byteOffset" : 73824
        }
    ],
    "buffers" : [
        {
            "byteLength" : 79688,
            "uri" : "data:application/octet-stream;base64,"
        }
    ]
}
