{
    "asset" : {
        "generator" : "Khronos glTF Blender I/O v1.7.33",
        "version" : "2.0"
    },
    "scene" : 0,
    "scenes" : [
        {
            "name" : "Scene",
            "nodes" : [
                0
            ]
        }
    ],
    "nodes" : [
        {
            "mesh" : 0,
            "name" : "CP0591.02000-3D-02533-31-01"
        }
    ],
    "materials" : [
        {
            "doubleSided" : true,
            "name" : "lightgrey.016",
            "pbrMetallicRoughness" : {
                "baseColorFactor" : [
                    0.7215686440467834,
                    0.7215686440467834,
                    0.7215686440467834,
                    1
                ],
                "roughnessFactor" : 0.858578622341156
            }
        }
    ],
    "meshes" : [
        {
            "name" : "Mesh.038",
            "primitives" : [
                {
                    "attributes" : {
                        "POSITION" : 0,
                        "NORMAL" : 1,
                        "TEXCOORD_0" : 2
                    },
                    "indices" : 3,
                    "material" : 0
                }
            ]
        }
    ],
    "accessors" : [
        {
            "bufferView" : 0,
            "componentType" : 5126,
            "count" : 10500,
            "max" : [
                31.19617462158203,
                4.000000476837158,
                11.702491760253906
            ],
            "min" : [
                0.9954147338867188,
                4.567205905914307e-06,
                -11.697471618652344
            ],
            "type" : "VEC3"
        },
        {
            "bufferView" : 1,
            "componentType" : 5126,
            "count" : 10500,
            "type" : "VEC3"
        },
        {
            "bufferView" : 2,
            "componentType" : 5126,
            "count" : 10500,
            "type" : "VEC2"
        },
        {
            "bufferView" : 3,
            "componentType" : 5123,
            "count" : 26604,
            "type" : "SCALAR"
        }
    ],
    "bufferViews" : [
        {
            "buffer" : 0,
            "byteLength" : 126000,
            "byteOffset" : 0
        },
        {
            "buffer" : 0,
            "byteLength" : 126000,
            "byteOffset" : 126000
        },
        {
            "buffer" : 0,
            "byteLength" : 84000,
            "byteOffset" : 252000
        },
        {
            "buffer" : 0,
            "byteLength" : 53208,
            "byteOffset" : 336000
        }
    ],
    "buffers" : [
        {
            "byteLength" : 389208,
            "uri" : "data:application/octet-stream;base64,"
        }
    ]
}
