{
    "asset" : {
        "generator" : "Khronos glTF Blender I/O v1.7.33",
        "version" : "2.0"
    },
    "scene" : 0,
    "scenes" : [
        {
            "name" : "Scene",
            "nodes" : [
                0
            ]
        }
    ],
    "nodes" : [
        {
            "mesh" : 0,
            "name" : "CP0591.02000-3D-02535-31-01"
        }
    ],
    "materials" : [
        {
            "doubleSided" : true,
            "name" : "lightgrey.017",
            "pbrMetallicRoughness" : {
                "baseColorFactor" : [
                    0.7215686440467834,
                    0.7215686440467834,
                    0.7215686440467834,
                    1
                ],
                "roughnessFactor" : 0.858578622341156
            }
        }
    ],
    "meshes" : [
        {
            "name" : "Mesh.039",
            "primitives" : [
                {
                    "attributes" : {
                        "POSITION" : 0,
                        "NORMAL" : 1,
                        "TEXCOORD_0" : 2
                    },
                    "indices" : 3,
                    "material" : 0
                }
            ]
        }
    ],
    "accessors" : [
        {
            "bufferView" : 0,
            "componentType" : 5126,
            "count" : 469,
            "max" : [
                28.566932678222656,
                8.574871063232422,
                11.57244873046875
            ],
            "min" : [
                3.1369705200195312,
                4.000005722045898,
                -11.5675048828125
            ],
            "type" : "VEC3"
        },
        {
            "bufferView" : 1,
            "componentType" : 5126,
            "count" : 469,
            "type" : "VEC3"
        },
        {
            "bufferView" : 2,
            "componentType" : 5126,
            "count" : 469,
            "type" : "VEC2"
        },
        {
            "bufferView" : 3,
            "componentType" : 5123,
            "count" : 996,
            "type" : "SCALAR"
        }
    ],
    "bufferViews" : [
        {
            "buffer" : 0,
            "byteLength" : 5628,
            "byteOffset" : 0
        },
        {
            "buffer" : 0,
            "byteLength" : 5628,
            "byteOffset" : 5628
        },
        {
            "buffer" : 0,
            "byteLength" : 3752,
            "byteOffset" : 11256
        },
        {
            "buffer" : 0,
            "byteLength" : 1992,
            "byteOffset" : 15008
        }
    ],
    "buffers" : [
        {
            "byteLength" : 17000,
            "uri" : "data:application/octet-stream;base64,"
        }
    ]
}
