{
    "asset" : {
        "generator" : "Khronos glTF Blender I/O v1.7.33",
        "version" : "2.0"
    },
    "scene" : 0,
    "scenes" : [
        {
            "name" : "Scene",
            "nodes" : [
                0
            ]
        }
    ],
    "nodes" : [
        {
            "mesh" : 0,
            "name" : "150450.27000-3D-320-01-1"
        }
    ],
    "animations" : [
        {
            "channels" : [
                {
                    "sampler" : 0,
                    "target" : {
                        "node" : 0,
                        "path" : "translation"
                    }
                },
                {
                    "sampler" : 1,
                    "target" : {
                        "node" : 0,
                        "path" : "rotation"
                    }
                },
                {
                    "sampler" : 2,
                    "target" : {
                        "node" : 0,
                        "path" : "scale"
                    }
                }
            ],
            "name" : "150450.27000-3D-320-01-1|Take 001|BaseLayer",
            "samplers" : [
                {
                    "input" : 5,
                    "interpolation" : "STEP",
                    "output" : 6
                },
                {
                    "input" : 5,
                    "interpolation" : "STEP",
                    "output" : 7
                },
                {
                    "input" : 5,
                    "interpolation" : "STEP",
                    "output" : 8
                }
            ]
        }
    ],
    "materials" : [
        {
            "doubleSided" : true,
            "name" : "Material #25",
            "pbrMetallicRoughness" : {
                "baseColorFactor" : [
                    0.5879999995231628,
                    0.5879999995231628,
                    0.5879999995231628,
                    1
                ],
                "roughnessFactor" : 0.858578622341156
            }
        }
    ],
    "meshes" : [
        {
            "name" : "Mesh",
            "primitives" : [
                {
                    "attributes" : {
                        "POSITION" : 0,
                        "NORMAL" : 1,
                        "TEXCOORD_0" : 2,
                        "TEXCOORD_1" : 3
                    },
                    "indices" : 4,
                    "material" : 0
                }
            ]
        }
    ],
    "accessors" : [
        {
            "bufferView" : 0,
            "componentType" : 5126,
            "count" : 1035,
            "max" : [
                224.46347045898438,
                32.75687026977539,
                24.000036239624023
            ],
            "min" : [
                0.041229248046875,
                0.005131721496582031,
                -24.000015258789062
            ],
            "type" : "VEC3"
        },
        {
            "bufferView" : 1,
            "componentType" : 5126,
            "count" : 1035,
            "type" : "VEC3"
        },
        {
            "bufferView" : 2,
            "componentType" : 5126,
            "count" : 1035,
            "type" : "VEC2"
        },
        {
            "bufferView" : 3,
            "componentType" : 5126,
            "count" : 1035,
            "type" : "VEC2"
        },
        {
            "bufferView" : 4,
            "componentType" : 5123,
            "count" : 4038,
            "type" : "SCALAR"
        },
        {
            "bufferView" : 5,
            "componentType" : 5126,
            "count" : 1,
            "max" : [
                0.03333333333333333
            ],
            "min" : [
                0.03333333333333333
            ],
            "type" : "SCALAR"
        },
        {
            "bufferView" : 6,
            "componentType" : 5126,
            "count" : 1,
            "type" : "VEC3"
        },
        {
            "bufferView" : 7,
            "componentType" : 5126,
            "count" : 1,
            "type" : "VEC4"
        },
        {
            "bufferView" : 8,
            "componentType" : 5126,
            "count" : 1,
            "type" : "VEC3"
        }
    ],
    "bufferViews" : [
        {
            "buffer" : 0,
            "byteLength" : 12420,
            "byteOffset" : 0
        },
        {
            "buffer" : 0,
            "byteLength" : 12420,
            "byteOffset" : 12420
        },
        {
            "buffer" : 0,
            "byteLength" : 8280,
            "byteOffset" : 24840
        },
        {
            "buffer" : 0,
            "byteLength" : 8280,
            "byteOffset" : 33120
        },
        {
            "buffer" : 0,
            "byteLength" : 8076,
            "byteOffset" : 41400
        },
        {
            "buffer" : 0,
            "byteLength" : 4,
            "byteOffset" : 49476
        },
        {
            "buffer" : 0,
            "byteLength" : 12,
            "byteOffset" : 49480
        },
        {
            "buffer" : 0,
            "byteLength" : 16,
            "byteOffset" : 49492
        },
        {
            "buffer" : 0,
            "byteLength" : 12,
            "byteOffset" : 49508
        }
    ],
    "buffers" : [
        {
            "byteLength" : 49520,
            "uri" : "data:application/octet-stream;base64,"
        }
    ]
}
